<?xml version="1.0" encoding="UTF-8"?>
<svg xmlns="http://www.w3.org/2000/svg" xmlns:xlink="http://www.w3.org/1999/xlink" viewBox="0 0 35 35" width="35px" height="35px">
<g id="surface48261075">
<path style=" stroke:none;fill-rule:nonzero;fill:rgb(2.745098%,36.862746%,32.941177%);fill-opacity:1;" d="M 17.5 1.398438 C 8.621094 1.398438 1.398438 8.621094 1.398438 17.5 C 1.398438 20.273438 2.117188 22.996094 3.472656 25.402344 L 1.425781 32.710938 C 1.359375 32.949219 1.421875 33.207031 1.597656 33.386719 C 1.730469 33.523438 1.914062 33.601562 2.101562 33.601562 C 2.15625 33.601562 2.210938 33.59375 2.269531 33.578125 L 9.894531 31.691406 C 12.222656 32.941406 14.847656 33.601562 17.5 33.601562 C 26.378906 33.601562 33.601562 26.378906 33.601562 17.5 C 33.601562 8.621094 26.378906 1.398438 17.5 1.398438 Z M 25.597656 23.179688 C 25.253906 24.132812 23.601562 25.003906 22.808594 25.121094 C 22.097656 25.226562 21.195312 25.269531 20.203125 24.960938 C 19.605469 24.769531 18.835938 24.519531 17.847656 24.097656 C 13.703125 22.332031 10.996094 18.210938 10.789062 17.9375 C 10.582031 17.664062 9.101562 15.722656 9.101562 13.714844 C 9.101562 11.707031 10.167969 10.71875 10.546875 10.3125 C 10.925781 9.902344 11.375 9.800781 11.648438 9.800781 C 11.925781 9.800781 12.199219 9.804688 12.441406 9.816406 C 12.695312 9.828125 13.035156 9.71875 13.371094 10.515625 C 13.714844 11.332031 14.542969 13.339844 14.644531 13.546875 C 14.75 13.75 14.816406 13.988281 14.679688 14.261719 C 14.542969 14.535156 14.472656 14.703125 14.265625 14.941406 C 14.058594 15.179688 13.832031 15.476562 13.648438 15.660156 C 13.441406 15.863281 13.226562 16.082031 13.464844 16.492188 C 13.707031 16.898438 14.535156 18.238281 15.765625 19.320312 C 17.34375 20.707031 18.675781 21.140625 19.089844 21.34375 C 19.503906 21.546875 19.742188 21.515625 19.984375 21.242188 C 20.226562 20.96875 21.015625 20.050781 21.292969 19.640625 C 21.566406 19.234375 21.84375 19.300781 22.222656 19.4375 C 22.601562 19.574219 24.632812 20.558594 25.046875 20.765625 C 25.460938 20.96875 25.734375 21.070312 25.839844 21.242188 C 25.945312 21.410156 25.945312 22.226562 25.597656 23.179688 Z M 25.597656 23.179688 "/>
</g>
</svg>
